<svg width="182" height="73" fill="none" xmlns="http://www.w3.org/2000/svg"><g filter="url(#filter0_d_1110_4826)" fill-rule="evenodd" clip-rule="evenodd"><path d="M26.757 29.48c2.286 0 4.062-.496 5.33-1.486 1.268-.991 1.902-2.369 1.902-4.133 0-1.681-.568-2.972-1.702-3.87-1.134-.9-2.76-1.349-4.879-1.349h-4.529V15.82h7.256L32.637 12H18v17.48h8.757zm-3.878-3.547v-3.77h3.553c1.702 0 2.552.616 2.552 1.848 0 .616-.217 1.09-.65 1.423-.434.333-1.068.5-1.902.5H22.88zm18.616-1.023v4.57h-4.954V12h8.007c1.584 0 2.96.262 4.128.787 1.168.524 2.069 1.273 2.702 2.247.634.974.951 2.118.951 3.433s-.317 2.456-.95 3.421c-.634.966-1.535 1.71-2.703 2.235-1.168.524-2.544.787-4.128.787h-3.053zm0-3.896v-5.119h2.752c1.018 0 1.785.225 2.302.675.517.449.776 1.082.776 1.897 0 .816-.259 1.444-.776 1.886-.517.44-1.284.661-2.302.661h-2.752zm24.946-1.773L59.235 29.48h-4.679V12h4.88v10.263L66.665 12h4.654v17.48H66.44V19.24zM79.953 29.48V15.92h5.93L87.909 12H75.073v17.48h4.88zm11.41-3.396l-1.377 3.396h-5.054L92.663 12h4.88l7.756 17.48h-5.154l-1.376-3.397h-7.407zm1.45-3.645l2.252-5.594 2.252 5.594h-4.503zm17.766 7.041V33h-2.052l-2.502-7.441h.625c1.035-.017 1.764-.724 2.19-2.123.425-1.398.688-3.412.788-6.042l.2-5.394h14.112v13.559h2.377V33h-4.529v-3.52h-11.209zm8.482-3.92h-6.631c.484-.7.843-1.698 1.076-2.997.234-1.298.384-2.88.451-4.744l.075-1.898h5.029v9.639zm21.518-6.318l-7.206 10.238h-4.679V12h4.879v10.263L140.804 12h4.654v17.48h-4.879V19.24zm13.587 10.238v-4.57h3.052c1.585 0 2.961-.262 4.129-.786 1.168-.524 2.068-1.27 2.702-2.235.634-.965.951-2.106.951-3.42 0-1.316-.317-2.46-.951-3.434-.634-.974-1.534-1.723-2.702-2.247-1.168-.525-2.544-.787-4.129-.787h-8.006v17.48h4.954zm0-13.584v5.12h2.752c1.018 0 1.785-.221 2.302-.662.517-.442.776-1.07.776-1.886 0-.815-.259-1.448-.776-1.897-.517-.45-1.284-.675-2.302-.675h-2.752z" fill="#fff"/><path d="M20.5 35h77c1.933 0 3.5 1.618 3.5 3.613v8.774C101 49.382 99.433 51 97.5 51h-77c-1.933 0-3.5-1.618-3.5-3.613v-8.774C17 36.618 18.567 35 20.5 35z" fill="#A5FF14"/><path d="M27.725 45.432c-.44.229-.947.343-1.523.343-.613 0-1.164-.123-1.65-.37a2.794 2.794 0 01-1.142-1.029 2.772 2.772 0 01-.41-1.494c0-.556.137-1.052.41-1.488a2.816 2.816 0 011.136-1.024c.483-.247 1.035-.37 1.656-.37.583 0 1.095.113 1.534.338.44.225.77.549.992.971l-1.064.592a1.656 1.656 0 00-.637-.587 1.811 1.811 0 00-.836-.195c-.517 0-.946.16-1.285.48-.34.32-.51.748-.51 1.283 0 .535.168.963.504 1.283.336.32.766.48 1.29.48.304 0 .582-.065.837-.195s.467-.325.637-.586l1.064.592a2.34 2.34 0 01-1.003.976zm3.606-4.25v4.52h-1.384v-5.639h5.672v5.638h-1.374v-4.519h-2.913zm8.92 4.593c.509 0 .967-.077 1.373-.232a2.501 2.501 0 001.008-.686l-.742-.813c-.421.408-.957.612-1.607.612-.51 0-.936-.121-1.28-.364a1.525 1.525 0 01-.636-.987h4.642c.015-.17.022-.3.022-.391 0-.577-.127-1.086-.382-1.526a2.645 2.645 0 00-1.064-1.024A3.226 3.226 0 0040.04 40a3.31 3.31 0 00-1.574.37 2.73 2.73 0 00-1.09 1.029c-.263.44-.394.934-.394 1.483 0 .556.135 1.054.404 1.494.27.44.652.783 1.147 1.03.495.246 1.067.37 1.717.37zm-1.895-3.347h3.357a1.536 1.536 0 00-.543-.992c-.303-.254-.68-.38-1.13-.38-.444 0-.818.125-1.125.375-.306.25-.493.582-.56.997zM51.04 47v-2.418h-.897v-4.519h-1.385v4.52h-2.825v-4.52h-1.385v5.638h5.196V47h1.296zm5.495-1.594a3.52 3.52 0 01-1.628.37 3.49 3.49 0 01-1.618-.37 2.771 2.771 0 01-1.124-1.03 2.801 2.801 0 01-.405-1.494c0-.556.135-1.052.405-1.488a2.78 2.78 0 011.124-1.024c.48-.247 1.02-.37 1.618-.37.605 0 1.148.123 1.628.37.48.246.855.587 1.125 1.024.27.436.404.932.404 1.488 0 .556-.134 1.054-.404 1.494-.27.44-.645.783-1.125 1.03zm-1.628-.76c-.51 0-.93-.162-1.258-.486-.328-.324-.493-.75-.493-1.278s.165-.953.493-1.277c.329-.324.748-.486 1.258-.486s.93.162 1.263.486c.332.324.498.75.498 1.277 0 .528-.166.954-.498 1.278-.333.324-.754.486-1.263.486zm4.908 1.055v1.257H58.53v-2.376h.277c.376-.014.633-.244.77-.691.136-.447.227-1.079.271-1.895l.078-1.933H64.8v4.52h.876v2.375H64.38V45.7h-4.564zm3.6-1.119h-2.913c.214-.197.362-.5.443-.908.081-.408.137-.936.166-1.584l.033-.908h2.271v3.4zm7.634.961a3.834 3.834 0 01-1.374.232c-.65 0-1.222-.123-1.717-.37a2.741 2.741 0 01-1.147-1.029 2.801 2.801 0 01-.404-1.494c0-.549.13-1.043.393-1.483a2.73 2.73 0 011.091-1.03A3.31 3.31 0 0169.466 40c.576 0 1.09.121 1.545.364.454.243.809.585 1.064 1.024.255.44.382.949.382 1.526 0 .091-.007.222-.022.39h-4.642c.08.416.293.745.637.988.343.243.77.364 1.28.364.65 0 1.185-.204 1.606-.612l.742.813a2.501 2.501 0 01-1.008.686zm.089-3.115h-3.357c.066-.415.253-.747.56-.997.306-.25.68-.375 1.124-.375.45 0 .827.127 1.13.38.302.253.483.584.543.992zm4.919 1.014l-1.44 2.26h-1.64l1.939-2.915-1.795-2.724h1.473l1.44 2.28h1.02v-2.28h1.374v2.28h1.008l1.451-2.28h1.474l-1.795 2.724 1.95 2.914h-1.651l-1.44-2.26h-.997v2.26h-1.374v-2.26h-.997zM84 46.958V45.7h4.565v1.257h1.296v-2.376h-.875v-4.519h-4.875l-.077 1.932c-.045.817-.135 1.449-.272 1.896-.137.447-.393.677-.77.691h-.277v2.376H84zm.687-2.376h2.914v-3.4H85.33l-.033.908a10.93 10.93 0 01-.167 1.584c-.08.409-.228.711-.443.908zm8.143 1.193c.444 0 .822-.065 1.136-.195a1.6 1.6 0 00.726-.565v.686H96v-3.304c0-.803-.23-1.403-.692-1.8-.462-.398-1.129-.597-2-.597-.488 0-.95.06-1.385.18-.436.12-.809.292-1.12.517l.544.96c.221-.175.493-.313.814-.411.321-.099.648-.148.98-.148.488 0 .855.106 1.103.317.247.21.371.514.371.908v.084h-1.529c-.85 0-1.471.153-1.867.46a1.466 1.466 0 00-.592 1.219c0 .324.09.614.271.871.181.257.438.457.77.602.332.144.72.216 1.163.216zm-.543-1.172c.2.141.477.212.831.212.348 0 .656-.076.925-.227.27-.152.46-.368.571-.65v-.654h-1.43c-.797 0-1.196.25-1.196.75 0 .239.1.428.3.57z" fill="#000"/></g><defs><filter id="filter0_d_1110_4826" x="0" y="0" width="182" height="73" filterUnits="userSpaceOnUse" color-interpolation-filters="sRGB"><feFlood flood-opacity="0" result="BackgroundImageFix"/><feColorMatrix in="SourceAlpha" values="0 0 0 0 0 0 0 0 0 0 0 0 0 0 0 0 0 0 127 0" result="hardAlpha"/><feOffset dy="5"/><feGaussianBlur stdDeviation="8.5"/><feColorMatrix values="0 0 0 0 0 0 0 0 0 0 0 0 0 0 0 0 0 0 0.5 0"/><feBlend in2="BackgroundImageFix" result="effect1_dropShadow_1110_4826"/><feBlend in="SourceGraphic" in2="effect1_dropShadow_1110_4826" result="shape"/></filter></defs></svg>