<svg width="69" height="45" fill="none" xmlns="http://www.w3.org/2000/svg"><path d="M67.207 21.169l-2.157-6.83 1.489-4.772-1.921-2.69 1.62-4.573c.296-.836-.501-1.627-1.18-1.17l-2.744 1.85-2.75 1.134-4.955 5.849-4.235.654-2.248 2.992-5.368-.407.17-2.681C43.06 8.402 41 7.04 39.467 8.237l-5.827 4.55-2.353-2.32-3.59 2.397-7.095-2.84.179-2.651c.158-2.348-2.05-3.932-3.82-2.74l-3.545 2.388-3.432-.762C8.528 5.935 7.222 7.342 7.412 9.03l.208 1.851-1.18 6.375-4.13 2.919c-1.102.779-1.584 2.329-1.154 3.73.32 1.039.745 3.639 1.21 6.326.42 2.425 3.35 2.692 4.096.372l1.247-3.876 1.114-.877c.919-.724 2.155-.61 2.96.274l2.036 2.232 3.322-.3 6.002.908 2.125 5.427c.217.556.612.995 1.102 1.228l4.527 2.148c.47.222.994.24 1.474.05l4.46-1.766 2.574 2.432 6.499 1.585c.72.176 1.444-.285 1.696-1.079l1.889-5.959 3.236 3.427 4.175.324-1.016 4.067c-.232.928.088 1.921.79 2.453.956.725 2.249.337 2.774-.832l2.724-6.068-2.737-6.775-3.936-.96.202-3.699 2.691-2.12.95-6.43 2.247 4.85 1.087 2.26c.658 1.366 2.146 1.876 3.349 1.149 1.102-.667 1.606-2.164 1.182-3.508z" stroke="#A5FF14" stroke-width="2"/></svg>