<svg width="43" height="58" fill="none" xmlns="http://www.w3.org/2000/svg"><path fill-rule="evenodd" clip-rule="evenodd" d="M9.67 26.89h-.12L9 26.62v4.88l3.6 2.7-1.2 1.6-4-3A1 1 0 017 32v-6.38l-1.45-.73A1 1 0 015 24v-7a1 1 0 01.76-.94L6 16v-1C6 6.716 12.716 0 21 0a14.85 14.85 0 0110.08 3.92 7.46 7.46 0 014.31-1.34 5.73 5.73 0 014.44 2.87c4.146 6.185 2.272 25.598 2.172 26.634L42 32.1a1 1 0 01-1.71.62l-2.22-2.22a10.39 10.39 0 01-2.78-5l-2.84 1.42h-.12A12.07 12.07 0 0127 33.38V38h4c6.075 0 11 4.925 11 11v9h-2v-9a9 9 0 00-9-9h-4.24l-4.84 17.27a1 1 0 01-1.92 0L15.24 40H11a9 9 0 00-9 9v9H0v-9c0-6.075 4.925-11 11-11h4v-4.62a12.07 12.07 0 01-5.33-6.49zM9 24.38v-7.1l-2 .5v5.6l2 1zm26-8.66l-2-.5V15a11.77 11.77 0 00-1.11-5H33c1.44 0 2 .56 2 2v3.72zm-9-7.09a13.17 13.17 0 005 5.74h.08c-.132-5.523-4.717-9.893-10.24-9.76-5.523.133-9.893 4.717-9.76 10.24 1.88-.37 6.42-1.73 13.42-6.67a1 1 0 01.86-.14 1 1 0 01.64.59zm-1 30.23l-4 14.4-4-14.4V34.3a11.78 11.78 0 008 0v4.56zM11 23c0 5.523 4.477 10 10 10s10-4.477 10-10v-6.37a14.63 14.63 0 01-6.39-6.15c-7.18 4.87-11.72 6.1-13.61 6.41V23zm24 .38l-2 1v-7.1l2 .5v5.6zm5.17 6.39c.39-5.22 1-18.7-2-23.22a3.78 3.78 0 00-2.9-1.97c-1.95-.12-4.13 1.66-5.13 2.66.21.25.4.5.59.76h2.26a3.64 3.64 0 014 4v11.07a8.39 8.39 0 002.49 6l.69.7zM8 15a13 13 0 0121.47-9.86c-.3.26-.55.5-.74.69A12 12 0 009 15v.22l-1 .25V15zm14 8v2h-3a1 1 0 01-.77-.34 1 1 0 01-.23-.8l1-7 2 .28-.85 5.86H22zm-7-2a2 2 0 100-4 2 2 0 000 4zm12 0a2 2 0 100-4 2 2 0 000 4zm-6.83 6H19v2h1.17a7.78 7.78 0 005.54-2.29l-1.42-1.42A5.79 5.79 0 0120.17 27zM27 50a1 1 0 011-1h8a1 1 0 011 1v4a1 1 0 01-1 1h-8a1 1 0 01-1-1v-4zm2 3h6v-2h-6v2z" fill="#A5FF14"/></svg>