<svg width="62" height="55" fill="none" xmlns="http://www.w3.org/2000/svg"><path fill-rule="evenodd" clip-rule="evenodd" d="M58.488 0H3.512A3.016 3.016 0 00.5 3.002v39.932a3.016 3.016 0 003.012 3.002h26.203L27.99 50.46l.001-.004c-.073.19-.121.4-.122.632-.007.356.145.797.468 1.084.318.294.72.397 1.05.394.115 0 .226-.011.332-.03l2.816-.503.107.029.05.028 1.772 2.242c.13.164.29.316.498.438a1.456 1.456 0 001.698-.15 1.69 1.69 0 00.481-.698l2.35-6.164 2.348 6.164c.093.243.238.49.48.699a1.46 1.46 0 001.699.149c.207-.12.367-.273.496-.436l.001-.002 1.772-2.24.078-.042.079-.017 2.817.503c.106.019.217.03.332.03.33.003.732-.1 1.05-.394.323-.289.475-.729.467-1.084 0-.231-.048-.44-.119-.627v-.001l-1.724-4.524h9.22a3.016 3.016 0 003.012-3.002V3.002A3.016 3.016 0 0058.488 0zM35.472 51.967l-1.018-1.286v-.001a2.356 2.356 0 00-.88-.669 2.557 2.557 0 00-1.041-.231 2.1 2.1 0 00-.374.033l-1.615.288 2.62-6.875a10.878 10.878 0 004.95 1.806l-2.642 6.935zm-4.849-17.754c0 4.76 3.885 8.632 8.661 8.632s8.66-3.873 8.66-8.632c0-4.759-3.884-8.631-8.66-8.631s-8.66 3.872-8.66 8.63zm-1.909 2.69H9.537V8.255h42.926v28.648h-2.61c.221-.862.35-1.76.35-2.69 0-6.01-4.886-10.883-10.919-10.883s-10.92 4.873-10.92 10.883c0 .93.13 1.828.35 2.69zM46.45 49.78c.12 0 .244.01.372.032l1.616.29-2.711-7.116a10.861 10.861 0 01-4.881 1.986l2.665 6.994 1.017-1.285c.26-.322.562-.524.88-.67a2.55 2.55 0 011.042-.231zm12.79-6.847a.76.76 0 01-.752.75H48.41l-.892-2.338c.58-.665 1.08-1.4 1.486-2.191h4.964a.754.754 0 00.753-.75V6.754a.754.754 0 00-.753-.751H8.031a.754.754 0 00-.753.75v31.65c0 .412.339.75.753.75h21.532a10.924 10.924 0 001.778 2.513l-.769 2.017H3.512a.762.762 0 01-.753-.75V3.002c0-.407.345-.751.753-.751h54.976c.408 0 .753.344.753.75v39.933zm-22.215-27.11H15.938c-.623 0-1.13-.505-1.13-1.127s.507-1.126 1.13-1.126h21.087c.623 0 1.13.504 1.13 1.126 0 .622-.507 1.126-1.13 1.126zm-21.087 5.253h12.05c.623 0 1.13.503 1.13 1.125s-.507 1.126-1.13 1.126h-12.05c-.623 0-1.13-.503-1.13-1.125 0-.623.507-1.126 1.13-1.126zm18.45 13.2c0-2.696 2.192-4.88 4.896-4.88a4.886 4.886 0 014.895 4.88c0 2.694-2.19 4.878-4.895 4.878-2.704 0-4.895-2.184-4.895-4.878zm2.26-.001a2.634 2.634 0 002.636 2.627 2.634 2.634 0 002.636-2.627 2.634 2.634 0 00-2.636-2.627 2.634 2.634 0 00-2.636 2.627z" fill="#A5FF14"/></svg>