<svg width="60" height="55" fill="none" xmlns="http://www.w3.org/2000/svg"><path fill-rule="evenodd" clip-rule="evenodd" d="M50 9.414v12.299c5.902 2.815 10 8.824 10 15.787C60 47.149 52.149 55 42.5 55h-2a1 1 0 110-2C46.841 53 52 47.841 52 41.5a11.42 11.42 0 00-2-6.46V47a1 1 0 01-1 1H1a1 1 0 01-1-1V9c0-.277.113-.527.294-.708L8.293.293A.996.996 0 019 0h48c.404 0 .77.243.924.617a.996.996 0 01.067.383H58v23h-2V3.414l-6 6zM30.414 8h18.172l6-6H36.414l-6 6zm-3.121.293A.996.996 0 0027 9v7h-4V9.414L30.414 2h3.172l-6.293 6.293zM27.586 2H9.414l-6 6h18.172l6-6zM2 46V10h19v7a1 1 0 001 1h6a1 1 0 001-1v-7h19v10.899A17.385 17.385 0 0042.5 20H41v-5a1.001 1.001 0 00-1.581-.814l-14 10a1 1 0 000 1.627l14 10A.999.999 0 0041 35v-4.989a11.45 11.45 0 017 2.779V46H2zm52-4.5c0 3.719-1.511 7.091-3.952 9.535C54.789 48.381 58 43.309 58 37.5 58 28.953 51.047 22 42.5 22H40a1 1 0 01-1-1v-4.057L27.721 25 39 33.057V29a1 1 0 011-1h.5C47.944 28 54 34.056 54 41.5zM4 42h12v2H4v-2zm12-4H4v2h12v-2z" fill="#A5FF14"/></svg>