<svg width="24" height="23" fill="none" xmlns="http://www.w3.org/2000/svg"><path fill-rule="evenodd" clip-rule="evenodd" d="M9.9 19.462c-5.468 0-9.9-4.357-9.9-9.731S4.432 0 9.9 0s9.9 4.357 9.9 9.73c0 2.122-.69 4.084-1.862 5.683l-1.298-1.26L15 15.86l1.319 1.28A9.962 9.962 0 019.9 19.461zm6.419-2.323L22.359 23 24 21.294l-6.062-5.881a9.853 9.853 0 01-1.62 1.726zM9.9 17.103c4.142 0 7.5-3.3 7.5-7.372s-3.358-7.372-7.5-7.372c-4.142 0-7.5 3.3-7.5 7.372 0 4.071 3.358 7.372 7.5 7.372z" fill="#324769"/></svg>